<svg width="351" height="57" viewBox="0 0 351 57" fill="none" xmlns="http://www.w3.org/2000/svg">
<path d="M7.54 45.7L4.66 41.8C6.7 40.64 8.08 39.56 8.8 38.56C9.52 37.56 9.88 36.52 9.88 35.44C9.88 34.28 9.58 33.18 8.98 32.14C8.38 31.06 7.64 29.98 6.76 28.9C5.88 27.82 4.98 26.68 4.06 25.48C3.18 24.24 2.44 22.9 1.84 21.46C1.24 19.98 0.94 18.36 0.94 16.6C0.94 13.28 1.78 10.38 3.46 7.9C5.18 5.38 7.34 3.08 9.94 0.999997L20.92 8.32C18.76 9.68 16.98 11.18 15.58 12.82C14.18 14.46 13.48 16.26 13.48 18.22C13.48 19.54 13.78 20.78 14.38 21.94C15.02 23.1 15.72 24.24 16.48 25.36C17.28 26.44 17.98 27.54 18.58 28.66C19.22 29.78 19.54 30.98 19.54 32.26C19.54 35.42 18.44 38.1 16.24 40.3C14.08 42.46 11.18 44.26 7.54 45.7ZM27.4998 43.9L24.4398 2.02L37.2798 0.0399988L35.0598 24.76H35.5998C37.1998 20.8 39.0998 17.62 41.2998 15.22C43.5398 12.82 45.8998 11.62 48.3798 11.62C49.0998 11.62 49.8198 11.74 50.5398 11.98C51.4598 13.1 52.2398 14.64 52.8798 16.6C53.5198 18.52 54.0398 20.66 54.4398 23.02C54.8398 25.38 55.1398 27.8 55.3398 30.28C55.5398 32.72 55.6798 35.06 55.7598 37.3C55.8398 39.5 55.8798 41.4 55.8798 43L45.0798 43.9C45.0798 40.02 45.0398 36.66 44.9598 33.82C44.8798 30.98 44.7598 28.38 44.5998 26.02C44.4798 23.62 44.2998 21.2 44.0598 18.76C43.2998 19.04 42.4198 19.56 41.4198 20.32C40.4598 21.08 39.4798 22.32 38.4798 24.04C37.4798 25.76 36.5398 28.18 35.6598 31.3C34.7798 34.38 34.0398 38.4 33.4398 43.36L27.4998 43.9ZM64.6422 44.38C64.4022 44.38 64.1422 44.38 63.8622 44.38C63.6222 44.38 63.3822 44.36 63.1422 44.32C61.7822 43.4 60.6822 42.04 59.8422 40.24C59.0422 38.4 58.6422 36.5 58.6422 34.54C58.6422 32.9 59.0222 31.54 59.7822 30.46C60.5422 29.38 61.9022 28.58 63.8622 28.06C65.8622 27.5 68.6622 27.22 72.2622 27.22C73.1422 27.22 74.0822 27.26 75.0822 27.34C76.0822 27.38 77.1422 27.48 78.2622 27.64L78.1422 26.32C77.9822 24.68 77.2022 23.4 75.8022 22.48C74.4422 21.56 72.8222 21.1 70.9422 21.1C69.9022 21.1 68.8022 21.26 67.6422 21.58C66.5222 21.9 65.4022 22.4 64.2822 23.08L61.6422 14.38C62.9622 13.82 64.6422 13.34 66.6822 12.94C68.7622 12.5 70.9022 12.28 73.1022 12.28C76.0222 12.28 78.5622 12.7 80.7222 13.54C82.9222 14.38 84.6222 15.7 85.8222 17.5C87.0622 19.26 87.6822 21.6 87.6822 24.52C87.6822 24.88 87.6622 25.3 87.6222 25.78C87.6222 26.26 87.6022 26.6 87.5622 26.8L85.8822 43.36L79.9422 43.9L79.0422 35.2H78.5622C77.2422 38 75.3822 40.24 72.9822 41.92C70.6222 43.56 67.8422 44.38 64.6422 44.38ZM69.1422 37.66C70.0222 37.5 71.0622 37.22 72.2622 36.82C73.5022 36.38 74.6822 35.66 75.8022 34.66C76.9622 33.62 77.8622 32.12 78.5022 30.16C77.9822 30.16 77.4622 30.16 76.9422 30.16C76.4222 30.12 75.8822 30.1 75.3222 30.1C74.0822 30.1 72.9622 30.12 71.9622 30.16C70.9622 30.2 69.9222 30.32 68.8422 30.52C68.6822 30.88 68.5022 31.32 68.3022 31.84C68.1022 32.36 68.0022 33.02 68.0022 33.82C68.0022 34.5 68.1222 35.24 68.3622 36.04C68.6022 36.8 68.8622 37.34 69.1422 37.66ZM100.047 44.38C99.8069 44.38 99.4069 44.32 98.8469 44.2C98.2869 44.12 97.8869 44.02 97.6469 43.9C96.1669 42.38 94.9669 40.14 94.0469 37.18C93.1669 34.22 92.7269 30.86 92.7269 27.1C92.7269 24.02 93.1069 21.46 93.8669 19.42C94.6269 17.38 95.9069 15.84 97.7069 14.8C99.5469 13.76 102.047 13.24 105.207 13.24C106.767 13.24 108.267 13.4 109.707 13.72C111.147 14.04 112.467 14.44 113.667 14.92L112.767 2.02L125.607 0.0399988L121.767 43.36L115.827 43.9L115.047 33.58H114.567C112.927 37.42 110.847 40.18 108.327 41.86C105.807 43.54 103.047 44.38 100.047 44.38ZM104.127 39.52C104.887 39.36 105.827 38.96 106.947 38.32C108.067 37.68 109.187 36.7 110.307 35.38C111.427 34.02 112.347 32.24 113.067 30.04C113.827 27.8 114.207 25.06 114.207 21.82C114.207 21.38 114.187 20.92 114.147 20.44C114.147 19.96 114.127 19.48 114.087 19C113.207 18.28 112.167 17.74 110.967 17.38C109.807 17.02 108.667 16.84 107.547 16.84C106.067 16.84 104.807 17.12 103.767 17.68C103.567 18.76 103.367 20.18 103.167 21.94C103.007 23.7 102.927 25.8 102.927 28.24C102.927 29.56 102.987 31 103.107 32.56C103.227 34.08 103.367 35.48 103.527 36.76C103.727 38 103.927 38.92 104.127 39.52ZM142.177 44.44C139.337 44.44 136.917 44.1 134.917 43.42C132.957 42.78 131.357 41.96 130.117 40.96C129.797 39.36 129.557 37.82 129.397 36.34C129.277 34.82 129.217 33.36 129.217 31.96C129.217 29.16 129.617 26.56 130.417 24.16C131.257 21.76 132.277 19.64 133.477 17.8C134.717 15.92 135.977 14.38 137.257 13.18C138.537 11.94 139.617 11.1 140.497 10.66C142.297 11.58 144.077 12.7 145.837 14.02C147.597 15.34 149.197 16.88 150.637 18.64C152.117 20.4 153.297 22.38 154.177 24.58C155.057 26.78 155.497 29.24 155.497 31.96C155.497 34.72 155.117 37.02 154.357 38.86C153.597 40.7 152.257 42.08 150.337 43C148.417 43.96 145.697 44.44 142.177 44.44ZM138.937 39.22C140.457 39.22 141.977 39.12 143.497 38.92C145.057 38.68 146.417 38.36 147.577 37.96C147.897 36.68 148.137 35.4 148.297 34.12C148.457 32.84 148.537 31.58 148.537 30.34C148.537 26.54 147.737 23.06 146.137 19.9C143.897 21.06 141.917 22.68 140.197 24.76C138.477 26.8 137.117 29.06 136.117 31.54C135.157 33.98 134.677 36.42 134.677 38.86C135.957 39.1 137.377 39.22 138.937 39.22ZM168.042 43.9L156.702 14.2L169.062 12.34L172.782 35.68H173.262L181.362 14.38L185.682 15.7L191.202 35.86H191.682L197.922 12.76L202.782 14.08L193.242 43.12L188.382 43.9L179.622 29.86L173.982 43.12L168.042 43.9ZM209.39 43.54L206.57 4L233.03 3.16L232.85 7.18L220.19 8.68L218.45 22.9L229.61 22.78L229.91 28.18L217.91 27.22L215.99 43.24L209.39 43.54ZM244.815 44.44C241.975 44.44 239.555 44.1 237.555 43.42C235.595 42.78 233.995 41.96 232.755 40.96C232.435 39.36 232.195 37.82 232.035 36.34C231.915 34.82 231.855 33.36 231.855 31.96C231.855 29.16 232.255 26.56 233.055 24.16C233.895 21.76 234.915 19.64 236.115 17.8C237.355 15.92 238.615 14.38 239.895 13.18C241.175 11.94 242.255 11.1 243.135 10.66C244.935 11.58 246.715 12.7 248.475 14.02C250.235 15.34 251.835 16.88 253.275 18.64C254.755 20.4 255.935 22.38 256.815 24.58C257.695 26.78 258.135 29.24 258.135 31.96C258.135 34.72 257.755 37.02 256.995 38.86C256.235 40.7 254.895 42.08 252.975 43C251.055 43.96 248.335 44.44 244.815 44.44ZM241.575 39.22C243.095 39.22 244.615 39.12 246.135 38.92C247.695 38.68 249.055 38.36 250.215 37.96C250.535 36.68 250.775 35.4 250.935 34.12C251.095 32.84 251.175 31.58 251.175 30.34C251.175 26.54 250.375 23.06 248.775 19.9C246.535 21.06 244.555 22.68 242.835 24.76C241.115 26.8 239.755 29.06 238.755 31.54C237.795 33.98 237.315 36.42 237.315 38.86C238.595 39.1 240.015 39.22 241.575 39.22ZM264.5 43.9L261.44 14.14L274.28 12.16L273.08 21.76H273.5C275.02 18.44 276.82 15.84 278.9 13.96C281.02 12.04 283.3 10.98 285.74 10.78L284.06 23.56C283.42 23.48 282.8 23.42 282.2 23.38C281.64 23.3 281.08 23.26 280.52 23.26C278.8 23.26 277.32 23.64 276.08 24.4C274.88 25.16 273.88 26.52 273.08 28.48C272.32 30.4 271.72 33.1 271.28 36.58L270.44 43.36L264.5 43.9ZM306.303 56.2C304.103 56.2 302.023 55.84 300.063 55.12C298.103 54.44 296.063 53.4 293.943 52L295.623 49C299.183 50.56 302.203 51.34 304.683 51.34C306.963 51.34 308.623 50.7 309.663 49.42C310.743 48.14 311.283 46.5 311.283 44.5C311.283 44.38 311.263 44.18 311.223 43.9C311.223 43.66 311.183 43.14 311.103 42.34C311.063 41.5 310.943 40.22 310.743 38.5C310.583 36.74 310.343 34.32 310.023 31.24H309.543C307.943 35.48 305.823 38.54 303.183 40.42C300.543 42.26 297.623 43.18 294.423 43.18C294.183 43.18 293.783 43.12 293.223 43C292.663 42.92 292.263 42.82 292.023 42.7C290.543 41.26 289.343 39.12 288.423 36.28C287.543 33.4 287.103 30.16 287.103 26.56C287.103 23.6 287.483 21.14 288.243 19.18C289.003 17.22 290.283 15.74 292.083 14.74C293.923 13.74 296.423 13.24 299.583 13.24C301.223 13.24 302.763 13.44 304.203 13.84C305.683 14.24 307.043 14.84 308.283 15.64L309.603 13.9L321.123 12.16L316.983 45.7C316.583 48.86 315.463 51.4 313.623 53.32C311.823 55.24 309.383 56.2 306.303 56.2ZM298.503 38.32C299.263 38.2 300.203 37.84 301.323 37.24C302.443 36.6 303.563 35.64 304.683 34.36C305.803 33.08 306.723 31.4 307.443 29.32C308.203 27.2 308.583 24.6 308.583 21.52C308.583 21.08 308.563 20.66 308.523 20.26C308.523 19.82 308.503 19.36 308.463 18.88C307.583 18.2 306.543 17.68 305.343 17.32C304.183 16.96 303.043 16.78 301.923 16.78C300.443 16.78 299.183 17.06 298.143 17.62C297.943 18.62 297.743 19.96 297.543 21.64C297.383 23.32 297.303 25.32 297.303 27.64C297.303 28.88 297.363 30.24 297.483 31.72C297.603 33.16 297.743 34.48 297.903 35.68C298.103 36.88 298.303 37.76 298.503 38.32ZM339.947 44.44C336.827 44.44 334.067 44.16 331.667 43.6C329.267 43.04 327.267 42.14 325.667 40.9C325.307 39.3 325.047 37.86 324.887 36.58C324.767 35.26 324.707 34.02 324.707 32.86C324.707 29.3 325.247 26.04 326.327 23.08C327.447 20.12 328.867 17.58 330.587 15.46C332.307 13.3 334.087 11.7 335.927 10.66C337.567 11.3 339.227 12.08 340.907 13C342.627 13.88 344.207 14.92 345.647 16.12C347.087 17.32 348.247 18.68 349.127 20.2C350.007 21.68 350.447 23.32 350.447 25.12C350.447 27 350.107 28.58 349.427 29.86C348.787 31.1 347.607 32.04 345.887 32.68C344.167 33.32 341.687 33.64 338.447 33.64C337.087 33.64 335.767 33.58 334.487 33.46C333.247 33.34 332.167 33.18 331.247 32.98C330.487 34.86 330.107 36.82 330.107 38.86C331.027 38.98 332.027 39.08 333.107 39.16C334.187 39.2 335.227 39.22 336.227 39.22C338.107 39.22 340.027 39.08 341.987 38.8C343.987 38.48 345.987 37.96 347.987 37.24L349.787 43.06C348.187 43.58 346.547 43.94 344.867 44.14C343.187 44.34 341.547 44.44 339.947 44.44ZM334.967 30.22C336.487 30.22 338.007 30.14 339.527 29.98C341.087 29.82 342.447 29.62 343.607 29.38C343.727 28.58 343.787 27.82 343.787 27.1C343.787 25.66 343.587 24.38 343.187 23.26C342.827 22.1 342.367 21.08 341.807 20.2C339.567 21.68 337.707 23.24 336.227 24.88C334.787 26.52 333.527 28.28 332.447 30.16C332.847 30.2 333.267 30.22 333.707 30.22C334.147 30.22 334.567 30.22 334.967 30.22Z" fill="white"/>
</svg>
